<svg id="Layer_1" data-name="Layer 1" xmlns="http://www.w3.org/2000/svg" width="200" height="200" viewBox="0 0 200 200"><title>Artboard 1 copy 2</title><path d="M139.719,155.055c-6.59,0-11.5-4.768-11.708-4.97L54.54,76.614a3.156,3.156,0,0,1-.712-1.1L42.88,46.808a3.131,3.131,0,0,1,4.045-4.041L75.557,53.714a3.14,3.14,0,0,1,1.095.71l73.519,73.482a19.4,19.4,0,0,1,4.153,6.877c1.889,5.556.485,11.059-3.95,15.5A14.821,14.821,0,0,1,139.719,155.055ZM132.4,145.62c.168.158,3.417,3.172,7.314,3.172a8.69,8.69,0,0,0,6.226-2.941c6.32-6.321.516-12.767-.22-13.532L72.694,59.327,51.228,51.118l8.215,21.54Z" style="fill:#fcfe6c"/><path d="M57.644,76.726a1.74,1.74,0,0,1-1.581-2.465L61.6,62.191a1.749,1.749,0,0,1,.732-.793l11.293-6.314a1.74,1.74,0,0,1,1.7,3.038l-10.8,6.038-5.3,11.554A1.741,1.741,0,0,1,57.644,76.726Z" style="fill:#fcfe6c"/><path d="M127.73,147.114a1.74,1.74,0,0,1-1.231-2.97l17.718-17.718a1.74,1.74,0,1,1,2.46,2.461L128.961,146.6A1.737,1.737,0,0,1,127.73,147.114Z" style="fill:#fcfe6c"/><path d="M118.134,101.505a3.132,3.132,0,0,1-2.216-5.347l33.987-33.986-12.092-12.03L103.958,84.026A3.132,3.132,0,1,1,99.527,79.6l36.063-36.1a3.132,3.132,0,0,1,4.425-.006L156.55,59.947a3.136,3.136,0,0,1,.006,4.435l-36.208,36.207A3.125,3.125,0,0,1,118.134,101.505Z" style="fill:#fcfe6c"/><path d="M136.1,83.135a1.733,1.733,0,0,1-1.23-.51L127.239,75a1.74,1.74,0,0,1,2.46-2.46l7.629,7.628a1.74,1.74,0,0,1-1.231,2.97Z" style="fill:#fcfe6c"/><path d="M140.525,78.706A1.738,1.738,0,0,1,139.3,78.2l-5.414-5.415a1.74,1.74,0,0,1,2.462-2.46l5.412,5.414a1.739,1.739,0,0,1-1.23,2.97Z" style="fill:#fcfe6c"/><path d="M144.956,74.276a1.735,1.735,0,0,1-1.23-.51l-5.414-5.413a1.74,1.74,0,1,1,2.461-2.461l5.413,5.413a1.74,1.74,0,0,1-1.23,2.97Z" style="fill:#fcfe6c"/><path d="M149.386,69.847a1.733,1.733,0,0,1-1.231-.51l-5.414-5.414a1.74,1.74,0,0,1,2.461-2.46l5.414,5.414a1.74,1.74,0,0,1-1.23,2.97Z" style="fill:#fcfe6c"/><path d="M122.81,96.423a1.735,1.735,0,0,1-1.231-.51L116.166,90.5a1.739,1.739,0,1,1,2.46-2.46l5.414,5.413a1.74,1.74,0,0,1-1.23,2.971Z" style="fill:#fcfe6c"/><path d="M127.238,91.994a1.736,1.736,0,0,1-1.23-.509l-5.414-5.414a1.74,1.74,0,0,1,2.461-2.461l5.413,5.413a1.74,1.74,0,0,1-1.229,2.971Z" style="fill:#fcfe6c"/><path d="M131.668,87.565a1.737,1.737,0,0,1-1.231-.509l-5.414-5.414a1.74,1.74,0,0,1,2.461-2.461l5.414,5.413a1.74,1.74,0,0,1-1.23,2.971Z" style="fill:#fcfe6c"/><path d="M62.2,157.441a3.125,3.125,0,0,1-2.205-.907l-16.539-16.4a3.133,3.133,0,0,1-.006-4.441l36-35.929a3.132,3.132,0,1,1,4.425,4.434L50.1,137.9l12.09,11.987,35.027-35.028a3.132,3.132,0,0,1,4.429,4.43L64.413,156.524A3.119,3.119,0,0,1,62.2,157.441Z" style="fill:#fcfe6c"/><path d="M80.977,138.255a1.733,1.733,0,0,1-1.231-.51l-7.627-7.628a1.74,1.74,0,0,1,2.46-2.461l7.628,7.628a1.74,1.74,0,0,1-1.23,2.97Z" style="fill:#fcfe6c"/><path d="M76.547,142.685a1.735,1.735,0,0,1-1.23-.51L69.9,136.762a1.74,1.74,0,1,1,2.46-2.461l5.414,5.414a1.74,1.74,0,0,1-1.23,2.971Z" style="fill:#fcfe6c"/><path d="M72.117,147.114a1.736,1.736,0,0,1-1.23-.509l-5.413-5.414a1.74,1.74,0,0,1,2.462-2.461l5.412,5.414a1.74,1.74,0,0,1-1.23,2.97Z" style="fill:#fcfe6c"/><path d="M67.688,151.544a1.733,1.733,0,0,1-1.229-.51l-5.414-5.414a1.74,1.74,0,0,1,2.46-2.461l5.414,5.414a1.74,1.74,0,0,1-1.23,2.971Z" style="fill:#fcfe6c"/><path d="M94.265,124.967a1.736,1.736,0,0,1-1.23-.509l-5.413-5.413a1.74,1.74,0,0,1,2.46-2.461L95.5,122a1.74,1.74,0,0,1-1.23,2.97Z" style="fill:#fcfe6c"/><path d="M89.835,129.4a1.735,1.735,0,0,1-1.23-.51l-5.414-5.413a1.74,1.74,0,0,1,2.461-2.461l5.414,5.413a1.74,1.74,0,0,1-1.23,2.971Z" style="fill:#fcfe6c"/><path d="M85.405,133.827a1.735,1.735,0,0,1-1.23-.51L78.762,127.9a1.74,1.74,0,0,1,2.461-2.46l5.413,5.414a1.74,1.74,0,0,1-1.23,2.97Z" style="fill:#fcfe6c"/><polygon points="56.03 49.745 50.124 55.651 45.448 47.039 56.03 49.745" style="fill:#fcfe6c"/><path d="M50.124,57.391a1.8,1.8,0,0,1-.25-.018,1.737,1.737,0,0,1-1.279-.893l-4.676-8.612a1.74,1.74,0,0,1,1.96-2.516l10.583,2.705a1.74,1.74,0,0,1,.8,2.917l-5.906,5.906A1.743,1.743,0,0,1,50.124,57.391Zm-1.245-7.68,1.662,3.062,2.1-2.1Z" style="fill:#fcfe6c"/></svg>