<svg id="Layer_1" data-name="Layer 1" xmlns="http://www.w3.org/2000/svg" width="200" height="200" viewBox="0 0 200 200"><title>Artboard 1 copy 3</title><path d="M137.714,149.96a30.675,30.675,0,0,1-27.133-15.92H89.332a30.647,30.647,0,0,1-27.1,15.92,31.341,31.341,0,0,1-.288-62.677c.066,0,75.718-.243,75.718-.243h.115a31.46,31.46,0,0,1-.06,62.92ZM87.449,128.04h25.015a3.255,3.255,0,0,1,2.812,1.879A25.054,25.054,0,0,0,162.8,118.867c0-13.8-11.2-25.41-24.97-25.442-.114.007-75.617.019-75.67.021a25.205,25.205,0,0,0,.068,50.408,24.847,24.847,0,0,0,22.41-13.986A3.206,3.206,0,0,1,87.449,128.04Z" style="fill:#fcfe6c"/><path d="M109.318,92.843c-1.73,0-3-.4-3-2.132V85.04h-13v5.671c0,1.73-1.269,2.132-3,2.132s-3-.4-3-2.132v-9.4a3.458,3.458,0,0,1,3.359-3.275H109.47a3.03,3.03,0,0,1,2.849,3.275v9.4C112.318,92.44,111.049,92.843,109.318,92.843Z" style="fill:#fcfe6c"/><path d="M100.318,84.447a3.022,3.022,0,0,1-3-3.132v-9.4a2.623,2.623,0,0,1,2.755-2.879h47.245v-7H77.642a9.495,9.495,0,0,1-9,7H62.49a3.391,3.391,0,0,1-3.172-3.385V53.128A3.128,3.128,0,0,1,62.49,50.04h6.147c5.133,0,7.831,3,8.874,6h72.675a3.327,3.327,0,0,1,3.133,3.352V71.919a3.123,3.123,0,0,1-3.133,3.121H103.318v6.275A3.022,3.022,0,0,1,100.318,84.447Zm-35-22.407h3.293a3.681,3.681,0,0,0,1.912-.275A2.146,2.146,0,0,0,71.8,59.806a2.3,2.3,0,0,1-.034-.459,5,5,0,0,0-.514-1.943,2.578,2.578,0,0,0-2.618-1.363H65.318Z" style="fill:#fcfe6c"/><path d="M59.366,64.282c-1.857,0-3.261-.02-3.281-.02-.961-.014-1.73-1.174-1.716-2.135s.789-2.088,1.739-2.088h.024a50.054,50.054,0,0,0,6.216.371,1.915,1.915,0,0,1,1.764,1.9A1.82,1.82,0,0,1,62.4,64.169C61.352,64.185,60.3,64.282,59.366,64.282Z" style="fill:#fcfe6c"/><path d="M59.366,58.019c-1.857,0-3.261-.02-3.281-.02a2,2,0,0,1,.023-3.959h.024c.031,0,3.146.281,6.216.24a1.85,1.85,0,0,1,1.764,1.835A1.792,1.792,0,0,1,62.4,57.938C61.352,57.954,60.3,58.019,59.366,58.019Z" style="fill:#fcfe6c"/><path d="M109.47,105.04H90.678a2.02,2.02,0,0,1,0-4H109.47a2.019,2.019,0,0,1,0,4Z" style="fill:#fcfe6c"/><path d="M96.941,118.04H90.678a2.02,2.02,0,0,1,0-4h6.264a2.019,2.019,0,0,1,0,4Z" style="fill:#fcfe6c"/><path d="M109.47,118.04h-3.132a2.019,2.019,0,0,1,0-4h3.132a2.019,2.019,0,0,1,0,4Z" style="fill:#fcfe6c"/><path d="M62.372,136.3a17.4,17.4,0,1,1,17.4-17.4A17.42,17.42,0,0,1,62.372,136.3Zm0-31.32A13.92,13.92,0,1,0,76.293,118.9,13.936,13.936,0,0,0,62.372,104.98Z" style="fill:#fcfe6c"/><path d="M68.753,120.04H56.226a1.517,1.517,0,1,1,0-3H68.753a1.517,1.517,0,1,1,0,3Z" style="fill:#fcfe6c"/><path d="M62.318,126.9a1.981,1.981,0,0,1-2-1.74V112.636a2.019,2.019,0,0,1,4,0v12.527A1.981,1.981,0,0,1,62.318,126.9Z" style="fill:#fcfe6c"/><path d="M138.411,112.524a5.655,5.655,0,1,1,4-1.656A5.616,5.616,0,0,1,138.411,112.524Zm0-7.83a2.174,2.174,0,1,0,1.537.636A2.158,2.158,0,0,0,138.411,104.694Z" style="fill:#fcfe6c"/><path d="M149.484,123.945a5.655,5.655,0,1,1,4-1.656A5.622,5.622,0,0,1,149.484,123.945Zm0-7.83a2.177,2.177,0,1,0,1.538.638A2.159,2.159,0,0,0,149.483,116.115Z" style="fill:#fcfe6c"/><path d="M138.411,135.366a5.655,5.655,0,1,1,4-1.656A5.612,5.612,0,0,1,138.411,135.366Zm0-7.83a2.176,2.176,0,1,0,1.537.638A2.162,2.162,0,0,0,138.411,127.536Z" style="fill:#fcfe6c"/><path d="M127.583,123.7a5.655,5.655,0,1,1,4-1.656A5.617,5.617,0,0,1,127.583,123.7Zm0-7.83a2.176,2.176,0,1,0,1.538.637A2.162,2.162,0,0,0,127.583,115.869Z" style="fill:#fcfe6c"/></svg>