<svg id="Layer_1" data-name="Layer 1" xmlns="http://www.w3.org/2000/svg" width="200" height="200" viewBox="0 0 200 200"><title>Logo_api</title><path d="M66.843,92.971h2.415l5.347,14.059H71.793l-1.307-3.5H65.576l-1.287,3.5H61.477Zm3.149,8.633-1.941-5.525-2.02,5.525Z" style="fill:#fcfe6c"/><path d="M76.15,107.029V92.971h5.96a3.988,3.988,0,0,1,1.792.406,4.629,4.629,0,0,1,1.416,1.069,5.034,5.034,0,0,1,.931,1.505,4.519,4.519,0,0,1,.337,1.693,4.879,4.879,0,0,1-.317,1.732,4.809,4.809,0,0,1-.891,1.5,4.369,4.369,0,0,1-1.386,1.049,4.01,4.01,0,0,1-1.782.4H78.882v4.712Zm2.732-7.109H82.05a1.565,1.565,0,0,0,1.258-.614,2.536,2.536,0,0,0,.505-1.663,2.744,2.744,0,0,0-.159-.96,2.336,2.336,0,0,0-.416-.723,1.653,1.653,0,0,0-.6-.446,1.766,1.766,0,0,0-.7-.148h-3.05Z" style="fill:#fcfe6c"/><path d="M88.485,107.029V92.971h2.732v14.059Z" style="fill:#fcfe6c"/><path d="M96.243,103.533V97.907h.4v5.263h3.36v.364Z" style="fill:#fff"/><path d="M102.67,103.533V97.907h.4v5.627Z" style="fill:#fff"/><path d="M110.516,102.075a1.389,1.389,0,0,1-.119.575,1.468,1.468,0,0,1-.808.773,1.559,1.559,0,0,1-.586.111h-2.631V97.907h2.623a1.112,1.112,0,0,1,.531.127,1.33,1.33,0,0,1,.4.329,1.512,1.512,0,0,1,.258.46,1.549,1.549,0,0,1,.091.519,1.5,1.5,0,0,1-.214.785,1.27,1.27,0,0,1-.594.523,1.4,1.4,0,0,1,.765.535A1.491,1.491,0,0,1,110.516,102.075Zm-3.741-3.8v2.251h2.061a.924.924,0,0,0,.42-.1,1.092,1.092,0,0,0,.329-.25,1.195,1.195,0,0,0,.3-.781,1.224,1.224,0,0,0-.075-.432,1.189,1.189,0,0,0-.206-.357.985.985,0,0,0-.313-.246.894.894,0,0,0-.4-.091Zm3.336,3.748a1.231,1.231,0,0,0-.3-.8,1.07,1.07,0,0,0-.337-.258.933.933,0,0,0-.416-.1h-2.283v2.306H109a1.024,1.024,0,0,0,.44-.1,1.089,1.089,0,0,0,.349-.258,1.3,1.3,0,0,0,.234-.369A1.088,1.088,0,0,0,110.111,102.02Z" style="fill:#fff"/><path d="M113.44,103.533V97.907h2.338a1.452,1.452,0,0,1,.658.151,1.685,1.685,0,0,1,.519.4,1.913,1.913,0,0,1,.341.563,1.714,1.714,0,0,1,.123.63,1.908,1.908,0,0,1-.1.6,1.757,1.757,0,0,1-.27.519,1.516,1.516,0,0,1-.42.381,1.474,1.474,0,0,1-.539.2l1.4,2.187h-.468l-1.363-2.124h-1.823v2.124Zm.4-2.5h1.973a1.022,1.022,0,0,0,.491-.119,1.241,1.241,0,0,0,.381-.313,1.386,1.386,0,0,0,.242-.444,1.607,1.607,0,0,0,.083-.511,1.388,1.388,0,0,0-.1-.519,1.454,1.454,0,0,0-.269-.44,1.357,1.357,0,0,0-.4-.305,1.06,1.06,0,0,0-.488-.115h-1.917Z" style="fill:#fff"/><path d="M122.086,97.907h.349l2.377,5.627h-.428l-.785-1.855h-2.686l-.785,1.855h-.436Zm1.4,3.44L122.261,98.4l-1.253,2.948Z" style="fill:#fff"/><path d="M127.491,103.533V97.907h2.338a1.454,1.454,0,0,1,.658.151,1.685,1.685,0,0,1,.519.4,1.913,1.913,0,0,1,.341.563,1.713,1.713,0,0,1,.123.63,1.908,1.908,0,0,1-.095.6,1.757,1.757,0,0,1-.27.519,1.516,1.516,0,0,1-.42.381,1.473,1.473,0,0,1-.539.2l1.4,2.187h-.468l-1.363-2.124H127.9v2.124Zm.4-2.5h1.973a1.022,1.022,0,0,0,.491-.119,1.248,1.248,0,0,0,.381-.313,1.386,1.386,0,0,0,.242-.444,1.607,1.607,0,0,0,.083-.511,1.4,1.4,0,0,0-.1-.519,1.456,1.456,0,0,0-.27-.44,1.354,1.354,0,0,0-.4-.305,1.062,1.062,0,0,0-.488-.115H127.9Z" style="fill:#fff"/><path d="M134.133,97.907l1.965,3.114,1.974-3.114h.451l-2.219,3.5v2.124h-.4v-2.14l-2.212-3.487Z" style="fill:#fff"/></svg>