<svg id="Layer_1" data-name="Layer 1" xmlns="http://www.w3.org/2000/svg" width="200" height="200" viewBox="0 0 200 200"><title>Logo_api</title><path d="M66.843,92.971h2.415l5.347,14.059H71.793l-1.307-3.5H65.576l-1.287,3.5H61.477Zm3.149,8.633-1.941-5.525-2.02,5.525Z" style="fill:#fcfe6c"/><path d="M76.15,107.029V92.971h5.96a3.988,3.988,0,0,1,1.792.406,4.629,4.629,0,0,1,1.416,1.069,5.034,5.034,0,0,1,.931,1.505,4.519,4.519,0,0,1,.337,1.693,4.879,4.879,0,0,1-.317,1.732,4.809,4.809,0,0,1-.891,1.5,4.369,4.369,0,0,1-1.386,1.049,4.01,4.01,0,0,1-1.782.4H78.882v4.712Zm2.732-7.109H82.05a1.565,1.565,0,0,0,1.258-.614,2.536,2.536,0,0,0,.505-1.663,2.744,2.744,0,0,0-.159-.96,2.336,2.336,0,0,0-.416-.723,1.653,1.653,0,0,0-.6-.446,1.766,1.766,0,0,0-.7-.148h-3.05Z" style="fill:#fcfe6c"/><path d="M88.485,107.029V92.971h2.732v14.059Z" style="fill:#fcfe6c"/><path d="M95.816,100.249a2.723,2.723,0,0,1,.161-.913,2.53,2.53,0,0,1,.469-.812,2.417,2.417,0,0,1,.755-.584,2.236,2.236,0,0,1,1.02-.225,2.083,2.083,0,0,1,1.16.311,1.963,1.963,0,0,1,.716.8L99.8,99a1.714,1.714,0,0,0-.319-.444,1.683,1.683,0,0,0-.394-.29,1.746,1.746,0,0,0-.44-.161,2.1,2.1,0,0,0-.451-.05,1.809,1.809,0,0,0-.859.2,2.027,2.027,0,0,0-.63.512,2.226,2.226,0,0,0-.39.712,2.511,2.511,0,0,0-.132.8,2.366,2.366,0,0,0,.157.859,2.39,2.39,0,0,0,.43.72,2.078,2.078,0,0,0,.644.5,1.764,1.764,0,0,0,.8.186,2.062,2.062,0,0,0,.473-.057,1.837,1.837,0,0,0,.466-.179,1.881,1.881,0,0,0,.415-.311,1.658,1.658,0,0,0,.322-.447l.315.15a1.688,1.688,0,0,1-.351.508,2.2,2.2,0,0,1-.494.372,2.351,2.351,0,0,1-.576.225,2.486,2.486,0,0,1-.6.075,2.01,2.01,0,0,1-.956-.229,2.53,2.53,0,0,1-.748-.6,2.778,2.778,0,0,1-.491-.838A2.711,2.711,0,0,1,95.816,100.249Z" style="fill:#fff"/><path d="M104.515,102.862a2.1,2.1,0,0,1-.967-.222,2.494,2.494,0,0,1-.752-.58,2.59,2.59,0,0,1-.487-.823,2.73,2.73,0,0,1-.172-.952,2.642,2.642,0,0,1,.183-.974,2.722,2.722,0,0,1,.5-.823,2.4,2.4,0,0,1,.755-.569,2.143,2.143,0,0,1,.945-.211,2.1,2.1,0,0,1,.97.225,2.435,2.435,0,0,1,.752.591,2.739,2.739,0,0,1,.483.827,2.691,2.691,0,0,1-.512,2.735,2.423,2.423,0,0,1-.755.566A2.144,2.144,0,0,1,104.515,102.862Zm-2.012-2.577a2.445,2.445,0,0,0,.147.841,2.27,2.27,0,0,0,.415.716,2.041,2.041,0,0,0,.641.5,1.8,1.8,0,0,0,.816.186,1.753,1.753,0,0,0,.827-.193,2.018,2.018,0,0,0,.63-.512,2.427,2.427,0,0,0,.4-2.377,2.33,2.33,0,0,0-.419-.716,2.078,2.078,0,0,0-.634-.5,1.741,1.741,0,0,0-.8-.186,1.773,1.773,0,0,0-.831.193,2.043,2.043,0,0,0-.637.512,2.355,2.355,0,0,0-.408.72A2.409,2.409,0,0,0,102.5,100.285Z" style="fill:#fff"/><path d="M109.311,102.826V97.743h.365V102.5h3.036v.329Z" style="fill:#fff"/><path d="M114.9,102.826V97.743h.365V102.5H118.3v.329Z" style="fill:#fff"/><path d="M123.881,102.5v.329h-3.386V97.743h3.322v.329h-2.957v2h2.585v.315h-2.585V102.5Z" style="fill:#fff"/><path d="M125.849,100.249a2.723,2.723,0,0,1,.161-.913,2.53,2.53,0,0,1,.469-.812,2.416,2.416,0,0,1,.755-.584,2.237,2.237,0,0,1,1.02-.225,2.083,2.083,0,0,1,1.16.311,1.961,1.961,0,0,1,.716.8l-.3.172a1.714,1.714,0,0,0-.319-.444,1.677,1.677,0,0,0-.394-.29,1.744,1.744,0,0,0-.44-.161,2.1,2.1,0,0,0-.451-.05,1.808,1.808,0,0,0-.859.2,2.03,2.03,0,0,0-.63.512,2.23,2.23,0,0,0-.39.712,2.511,2.511,0,0,0-.132.8,2.366,2.366,0,0,0,.157.859,2.39,2.39,0,0,0,.43.72,2.078,2.078,0,0,0,.644.5,1.765,1.765,0,0,0,.8.186,2.06,2.06,0,0,0,.473-.057,1.833,1.833,0,0,0,.466-.179,1.889,1.889,0,0,0,.415-.311,1.67,1.67,0,0,0,.322-.447l.315.15a1.688,1.688,0,0,1-.351.508,2.205,2.205,0,0,1-.494.372,2.351,2.351,0,0,1-.576.225,2.486,2.486,0,0,1-.6.075,2.008,2.008,0,0,1-.956-.229,2.527,2.527,0,0,1-.748-.6,2.778,2.778,0,0,1-.491-.838A2.711,2.711,0,0,1,125.849,100.249Z" style="fill:#fff"/><path d="M136.073,98.072h-1.862v4.754h-.365V98.072h-1.862v-.329h4.088Z" style="fill:#fff"/><path d="M138.292,102.826V97.743h.365v5.083Z" style="fill:#fff"/><path d="M143.447,102.862a2.1,2.1,0,0,1-.967-.222,2.5,2.5,0,0,1-.752-.58,2.589,2.589,0,0,1-.487-.823,2.723,2.723,0,0,1-.172-.952,2.641,2.641,0,0,1,.182-.974,2.727,2.727,0,0,1,.5-.823,2.4,2.4,0,0,1,.756-.569,2.141,2.141,0,0,1,.945-.211,2.1,2.1,0,0,1,.97.225,2.444,2.444,0,0,1,.752.591,2.726,2.726,0,0,1,.483.827,2.692,2.692,0,0,1-.512,2.735,2.426,2.426,0,0,1-.756.566A2.141,2.141,0,0,1,143.447,102.862Zm-2.012-2.577a2.445,2.445,0,0,0,.147.841,2.276,2.276,0,0,0,.415.716,2.042,2.042,0,0,0,.641.5,1.8,1.8,0,0,0,.816.186,1.751,1.751,0,0,0,.827-.193,2.015,2.015,0,0,0,.63-.512,2.427,2.427,0,0,0,.4-2.377,2.319,2.319,0,0,0-.419-.716,2.07,2.07,0,0,0-.633-.5,1.741,1.741,0,0,0-.8-.186,1.773,1.773,0,0,0-.831.193,2.042,2.042,0,0,0-.637.512,2.344,2.344,0,0,0-.408.72A2.41,2.41,0,0,0,141.435,100.285Z" style="fill:#fff"/><path d="M148.609,98.43v4.4h-.365V97.743h.279l3.565,4.475V97.743h.365v5.083h-.336Z" style="fill:#fff"/></svg>