<?xml version="1.0" encoding="utf-8"?>
<!-- Generator: Adobe Illustrator 21.1.0, SVG Export Plug-In . SVG Version: 6.00 Build 0)  -->
<svg version="1.1" id="Layer_1" xmlns="http://www.w3.org/2000/svg" xmlns:xlink="http://www.w3.org/1999/xlink" x="0px" y="0px"
	 viewBox="0 0 200 200" style="enable-background:new 0 0 200 200;" xml:space="preserve">
<style type="text/css">
	.st0{fill:#FCFE6C;}
	.st1{fill:#FFFFFF;}
</style>
<g>
	<g>
		<path class="st0" d="M49.8,89.6h3.5l7.8,20.7H57l-1.9-5.1h-7.2l-1.9,5.1h-4.1L49.8,89.6z M54.3,102.3l-2.8-8.1l-2.9,8.1H54.3z"/>
		<path class="st0" d="M63.4,110.2V89.6h8.8c0.9,0,1.8,0.1,2.6,0.6c0.7,0.4,1.5,0.9,2.1,1.6c0.6,0.6,1,1.5,1.3,2.2
			c0.3,0.7,0.4,1.6,0.4,2.5s-0.1,1.8-0.4,2.5c-0.3,0.9-0.7,1.6-1.3,2.2c-0.6,0.6-1.3,1.2-2.1,1.5c-0.9,0.4-1.8,0.6-2.6,0.6h-4.8v6.9
			L63.4,110.2z M67.4,99.8h4.7c0.7,0,1.5-0.3,1.9-0.9c0.6-0.7,0.7-1.6,0.7-2.5c0-0.4,0-1-0.3-1.5c-0.1-0.4-0.3-0.7-0.6-1
			c-0.3-0.3-0.6-0.4-0.9-0.6c-0.3-0.1-0.7-0.1-1-0.1h-4.6L67.4,99.8z"/>
		<path class="st0" d="M81.5,110.2V89.6h4v20.6H81.5z"/>
	</g>
	<g>
		<path class="st1" d="M93.7,97.9c1.3,0,2,0.7,2,0.7L95.4,99c0,0-0.7-0.6-1.7-0.6c-1.3,0-2.3,1-2.3,2.4c0,1.3,0.9,2.4,2.3,2.4
			c1.1,0,1.8-0.8,1.8-0.8l0.3,0.4c0,0-0.8,0.9-2.2,0.9c-1.7,0-2.8-1.3-2.8-2.9C90.9,99.1,92.1,97.9,93.7,97.9z"/>
		<path class="st1" d="M101.5,97.9c1.6,0,2.9,1.3,2.9,2.9c0,1.6-1.3,2.9-2.9,2.9c-1.6,0-2.9-1.3-2.9-2.9
			C98.7,99.1,99.9,97.9,101.5,97.9z M101.5,103.2c1.3,0,2.3-1.1,2.3-2.4c0-1.3-1-2.4-2.3-2.4c-1.3,0-2.3,1-2.3,2.4
			C99.2,102.1,100.3,103.2,101.5,103.2z"/>
		<path class="st1" d="M107.6,98h0.6v5.1h2.6v0.5h-3.2V98z"/>
		<path class="st1" d="M113.8,98h0.6v5.1h2.6v0.5h-3.2V98z"/>
		<path class="st1" d="M119.9,98h3.2v0.5h-2.6v2h2.1v0.5h-2.1v2.1h2.8v0.5h-3.3V98z"/>
		<path class="st1" d="M128.9,97.9c1.3,0,2,0.7,2,0.7l-0.3,0.4c0,0-0.7-0.6-1.7-0.6c-1.3,0-2.3,1-2.3,2.4c0,1.3,0.9,2.4,2.3,2.4
			c1.1,0,1.8-0.8,1.8-0.8l0.3,0.4c0,0-0.8,0.9-2.2,0.9c-1.7,0-2.8-1.3-2.8-2.9C126.1,99.1,127.3,97.9,128.9,97.9z"/>
		<path class="st1" d="M135.5,98.5h-2V98h4.6v0.5h-2v5.1h-0.6V98.5z"/>
		<path class="st1" d="M141,98h0.6v5.6H141V98z"/>
		<path class="st1" d="M147.6,97.9c1.6,0,2.9,1.3,2.9,2.9c0,1.6-1.3,2.9-2.9,2.9c-1.6,0-2.9-1.3-2.9-2.9
			C144.8,99.1,146,97.9,147.6,97.9z M147.6,103.2c1.3,0,2.3-1.1,2.3-2.4c0-1.3-1-2.4-2.3-2.4c-1.3,0-2.3,1-2.3,2.4
			C145.4,102.1,146.4,103.2,147.6,103.2z"/>
		<path class="st1" d="M153.8,98h0.5l2.9,4c0.2,0.3,0.5,0.8,0.5,0.8h0c0,0,0-0.5,0-0.8v-4h0.6v5.6h-0.5l-2.9-4
			c-0.2-0.3-0.5-0.8-0.5-0.8h0c0,0,0,0.5,0,0.8v4h-0.6V98z"/>
	</g>
</g>
</svg>
