<svg id="Layer_1" data-name="Layer 1" xmlns="http://www.w3.org/2000/svg" width="200" height="200" viewBox="0 0 200 200"><title>Artboard 1 copy</title><path d="M151.427,122H48.143A7.393,7.393,0,0,1,41,114.8V51.409C41,47.073,44.908,45,48.143,45H151.427A6.244,6.244,0,0,1,158,51.409V114.8A6.937,6.937,0,0,1,151.427,122ZM48.153,115h103.2c.023,0,.647-.208.647-.213V51.48c0-.022-.58-.48-.585-.48H48.216a3.254,3.254,0,0,0-.216.419v63.307A2.288,2.288,0,0,0,48.153,115Z" style="fill:#fcfe6c"/><path d="M171.443,155H28.125C23.79,155,22,151.4,22,148.163v-3.337a3.116,3.116,0,0,1,.926-2.562l19.882-16.586a2.892,2.892,0,0,1,2-.677H154.763a3.254,3.254,0,0,1,2.136.677l19.959,16.634A3.181,3.181,0,0,1,178,144.826v3.337A6.588,6.588,0,0,1,171.443,155ZM28,149H171.287c.023,0,.012-2.764.012-2.764L153.555,131H46.014L28,146.042Z" style="fill:#fcfe6c"/><path d="M174.781,146H24.787a2.006,2.006,0,0,1,0-4H174.781a2.006,2.006,0,0,1,0,4Z" style="fill:#fcfe6c"/><path d="M113.708,140H86.232a1.522,1.522,0,0,1-1.325-1.1,1.489,1.489,0,0,1,.528-1.622l2.379-1.669c.233-.163.511-.6.8-.6h22.719c.283,0,.562.407.795.571l2.379,1.65a1.578,1.578,0,0,1,.528,1.68A1.511,1.511,0,0,1,113.708,140Z" style="fill:#fcfe6c"/></svg>