<svg id="Layer_1" data-name="Layer 1" xmlns="http://www.w3.org/2000/svg" width="200" height="200" viewBox="0 0 200 200"><title>Artboard 1</title><path d="M109.675,159H89.943a3.111,3.111,0,0,1-3.1-2.662L85,143.467a45.759,45.759,0,0,1-5.421-2.227l-10.445,7.837a3.131,3.131,0,0,1-4.095-.29L51.086,134.836a3.128,3.128,0,0,1-.291-4.092L58.624,120.3a45.857,45.857,0,0,1-2.252-5.424l-13.051-1.846a3.251,3.251,0,0,1-2.821-3.1V90.2a3.25,3.25,0,0,1,2.821-3.1l12.985-1.846a46.12,46.12,0,0,1,2.286-5.423L50.781,69.395a3.128,3.128,0,0,1,.3-4.094L65.035,51.352a3.136,3.136,0,0,1,4.1-.291L79.575,58.9A45.608,45.608,0,0,1,85,56.656l1.846-12.928A3.167,3.167,0,0,1,89.943,41h19.731a3.168,3.168,0,0,1,3.1,2.728l1.842,12.905a45.785,45.785,0,0,1,5.419,2.243l10.441-7.828a3.132,3.132,0,0,1,4.095.294L148.52,65.3a3.133,3.133,0,0,1,.288,4.1l-7.845,10.442a45.855,45.855,0,0,1,2.228,5.423l13.24,1.844a3.5,3.5,0,0,1,3.069,3.1v19.731a3.5,3.5,0,0,1-3.069,3.1l-13.044,1.842a45.678,45.678,0,0,1-2.3,5.418l7.789,10.447a3.135,3.135,0,0,1-.315,4.094L134.59,148.783a3.136,3.136,0,0,1-4.1.291l-10.445-7.838a45.787,45.787,0,0,1-5.424,2.24l-1.846,12.861A3.112,3.112,0,0,1,109.675,159ZM92.66,153h14.3l1.738-12.254a3.2,3.2,0,0,1,2.223-2.616,39.563,39.563,0,0,0,7.921-3.3,3.132,3.132,0,0,1,3.387.229l9.844,7.381,10.109-10.109-7.384-9.848a3.133,3.133,0,0,1-.24-3.387,39.378,39.378,0,0,0,3.234-7.918,3.149,3.149,0,0,1,2.577-2.223l12.131-1.737v-14.3l-12.135-1.737a3.144,3.144,0,0,1-2.568-2.223,39.449,39.449,0,0,0-3.263-7.921,3.131,3.131,0,0,1,.239-3.389l7.395-9.844L132.065,57.7l-9.842,7.385a3.136,3.136,0,0,1-3.387.239,39.43,39.43,0,0,0-7.915-3.265,3.359,3.359,0,0,1-2.225-2.736L106.96,47H92.66L90.921,59.318a3.247,3.247,0,0,1-2.223,2.65,39.577,39.577,0,0,0-7.919,3.32,3.127,3.127,0,0,1-3.386-.219l-9.846-7.379L57.438,67.8l7.382,9.845a3.134,3.134,0,0,1,.239,3.387,39.577,39.577,0,0,0-3.29,7.922,3.49,3.49,0,0,1-2.827,2.223L46.5,92.918v14.3l12.441,1.738a3.3,3.3,0,0,1,2.7,2.223,39.838,39.838,0,0,0,3.355,7.922,3.126,3.126,0,0,1-.206,3.387l-7.366,9.842L67.538,142.44l9.853-7.384a3.135,3.135,0,0,1,3.387-.241,39.463,39.463,0,0,0,7.92,3.266,3.268,3.268,0,0,1,2.223,2.668Z" style="fill:#fcfe6c"/><path d="M99.81,129.508a29.44,29.44,0,1,1,29.44-29.44A29.475,29.475,0,0,1,99.81,129.508Zm0-52.617a23.177,23.177,0,1,0,23.177,23.177A23.2,23.2,0,0,0,99.81,76.891Z" style="fill:#fcfe6c"/><path d="M99.81,113.082a13.015,13.015,0,1,1,13.016-13.015A13.029,13.029,0,0,1,99.81,113.082Zm0-22.551a9.536,9.536,0,1,0,9.536,9.536A9.546,9.546,0,0,0,99.81,90.531Z" style="fill:#fcfe6c"/><circle cx="99.81" cy="100.067" r="3.758" style="fill:#fcfe6c"/></svg>